HIERARCHY
ROOT Hips
{
  OFFSET 52.5951 100.9 44.763
  CHANNELS 6 Xposition Yposition Zposition Zrotation Xrotation Yrotation
  JOINT spine
  {
    OFFSET 0 8.81704 0.507024
    CHANNELS 3 Zrotation Xrotation Yrotation
    JOINT spine1
    {
      OFFSET 0 10.7766 0
      CHANNELS 3 Zrotation Xrotation Yrotation
      JOINT spine2
      {
        OFFSET 0 10.3259 0
        CHANNELS 3 Zrotation Xrotation Yrotation
        JOINT Neck
        {
          OFFSET 0 26.511 1.26395
          CHANNELS 3 Zrotation Xrotation Yrotation
          JOINT Head
          {
            OFFSET 0 8.00966 0
            CHANNELS 3 Zrotation Xrotation Yrotation
            End Site
            {
              OFFSET 0 19.3879 -6.39386
            }
          }
        }
        JOINT RightShoulder
        {
          OFFSET -4.34795 11.1512 -0.605422
          CHANNELS 3 Zrotation Xrotation Yrotation
          JOINT RightArm
          {
            OFFSET 0 14.6258 0
            CHANNELS 3 Zrotation Xrotation Yrotation
            JOINT RightArmRoll
            {
              OFFSET 0 7.3834 0
              CHANNELS 3 Zrotation Xrotation Yrotation
              JOINT RightForeArm
              {
                OFFSET 0 21.5052 0
                CHANNELS 3 Zrotation Xrotation Yrotation
                JOINT RightForeArmRoll
                {
                  OFFSET 0 8.28532 0
                  CHANNELS 3 Zrotation Xrotation Yrotation
                  JOINT RightHand
                  {
                    OFFSET 0 16.6268 0
                    CHANNELS 3 Zrotation Xrotation Yrotation
                    End Site
                    {
                      OFFSET 0 0 0
                    }
                  }
                }
              }
            }
          }
        }
        JOINT LeftShoulder
        {
          OFFSET 4.34795 11.1512 -0.605422
          CHANNELS 3 Zrotation Xrotation Yrotation
          JOINT LeftArm
          {
            OFFSET 0 14.6258 0
            CHANNELS 3 Zrotation Xrotation Yrotation
            JOINT LeftArmRoll
            {
              OFFSET 0 7.3834 0
              CHANNELS 3 Zrotation Xrotation Yrotation
              JOINT LeftForeArm
              {
                OFFSET 0 21.5052 0
                CHANNELS 3 Zrotation Xrotation Yrotation
                JOINT LeftForeArmRoll
                {
                  OFFSET 0 8.28532 0
                  CHANNELS 3 Zrotation Xrotation Yrotation
                  JOINT LeftHand
                  {
                    OFFSET 0 16.6268 0
                    CHANNELS 3 Zrotation Xrotation Yrotation
                    End Site
                    {
                      OFFSET 0 0 0
                    }
                  }
                }
              }
            }
          }
        }
      }
    }
  }
  JOINT RightUpLeg
  {
    OFFSET -7.8151 -1.43309 -1.20217
    CHANNELS 3 Zrotation Xrotation Yrotation
    JOINT RightUpLegRoll
    {
      OFFSET 0 19.4959 0
      CHANNELS 3 Zrotation Xrotation Yrotation
      JOINT RightLeg
      {
        OFFSET 0 -24.1427 0
        CHANNELS 3 Zrotation Xrotation Yrotation
        JOINT RightLegRoll
        {
          OFFSET 0 24.2217 0
          CHANNELS 3 Zrotation Xrotation Yrotation
          JOINT RightFoot
          {
            OFFSET 0 20.1605 0
            CHANNELS 3 Zrotation Xrotation Yrotation
            JOINT RightToeBase
            {
              OFFSET 0 16.8532 0
              CHANNELS 3 Zrotation Xrotation Yrotation
              End Site
              {
                OFFSET 0.00714343 8.16187 -0.94078
              }
            }
          }
        }
      }
    }
  }
  JOINT LeftUpLeg
  {
    OFFSET 7.8151 -1.43309 -1.20217
    CHANNELS 3 Zrotation Xrotation Yrotation
    JOINT LeftUpLegRoll
    {
      OFFSET 0 19.496 0
      CHANNELS 3 Zrotation Xrotation Yrotation
      JOINT LeftLeg
      {
        OFFSET 0 24.1426 0
        CHANNELS 3 Zrotation Xrotation Yrotation
        JOINT LeftLegRoll
        {
          OFFSET 0 24.4456 0
          CHANNELS 3 Zrotation Xrotation Yrotation
          JOINT LeftFoot
          {
            OFFSET 0 19.9366 0
            CHANNELS 3 Zrotation Xrotation Yrotation
            JOINT LeftToeBase
            {
              OFFSET 0 16.8532 0
              CHANNELS 3 Zrotation Xrotation Yrotation
              End Site
              {
                OFFSET -0.0320138 8.16187 -0.940781
              }
            }
          }
        }
      }
    }
  }
}
MOTION
Frames: 11
Frame Time: 0.00208333
50.3328 51.6599 10.585 -3.01269 -22.6778 -0.730112 0.51228 1.74883 0.0543612 1.03252 7.49926 0.0143807 1.03503 9.14421 -0.00301639 3.95347 38.6138 0.0561391 -7.42479 -21.7608 -0.379622 80.6821 -0.570158 -2.73197 90.9778 29.706 -4.72243 -1.64162e-007 -1.42725e-006 1.86646e-006 20.7841 41.8336 -8.88658 -2.56029e-007 1.4486e-005 -3.00898 8.02893 -4.95092 0.697384 -67.1362 -2.87062 2.53042 -102.453 25.4794 12.2429 8.72567e-007 -1.69209e-006 1.83081e-006 -17.1578 45.579 8.59786 8.36647e-007 -1.05834e-006 3.00568 -8.02885 -4.95127 -0.697602 147.296 69.6306 38.551 180 3.05037e-005 178.274 -6.01409 75.7378 6.67748 6.14998e-006 -7.32193e-006 2.11429 -27.3247 71.7351 23.8475 8.1338 25.2359 -3.474 -134.714 69.5114 -41.4047 4.47153e-006 -3.51245e-005 -1.15989 161.133 -73.5963 157.23 2.45166e-006 -6.74663e-007 -1.57214 18.262 71.5632 -22.6555 -8.13649 25.2327 3.47885 
50.3359 51.6588 10.6003 -3.01273 -22.678 -0.731257 0.512733 1.74929 0.0543432 1.03242 7.50106 0.0143846 1.03493 9.14601 -0.0030109 3.95229 38.6113 0.0560847 -7.43229 -21.7612 -0.382534 80.6822 -0.571063 -2.73232 90.9718 29.7078 -4.72072 -1.64162e-007 -1.42725e-006 1.86646e-006 20.784 41.8372 -8.88724 -2.56029e-007 1.4486e-005 -3.00898 8.02893 -4.95092 0.697384 -67.1439 -2.86968 2.53057 -102.447 25.4817 12.2418 8.72567e-007 -1.69209e-006 1.83081e-006 -17.1582 45.5813 8.59862 8.36647e-007 -1.05834e-006 3.00568 -8.02885 -4.95127 -0.697602 147.294 69.6309 38.5521 180 3.05037e-005 178.274 -6.01682 75.7374 6.68012 6.14998e-006 -7.32193e-006 2.11429 -27.3267 71.7353 23.8493 8.1338 25.2359 -3.474 -134.714 69.5119 -41.4041 4.47153e-006 -3.51245e-005 -1.15989 161.132 -73.5971 157.229 2.45166e-006 -6.74663e-007 -1.57213 18.2619 71.5623 -22.656 -8.13649 25.2327 3.47885 
50.3358 51.6621 10.5939 -3.01273 -22.6782 -0.732398 0.513195 1.74976 0.0543249 1.03229 7.5029 0.0143697 1.03478 9.14785 -0.00302343 3.95053 38.6088 0.0561138 -7.43947 -21.7615 -0.385518 80.682 -0.571944 -2.73263 90.9658 29.7094 -4.71909 -1.64162e-007 -1.42725e-006 1.86646e-006 20.7838 41.8409 -8.88792 -2.56029e-007 1.4486e-005 -3.00898 8.02893 -4.95092 0.697384 -67.1522 -2.86869 2.53075 -102.441 25.4841 12.2405 8.72567e-007 -1.69209e-006 1.83081e-006 -17.1586 45.5836 8.59939 8.36647e-007 -1.05834e-006 3.00568 -8.02885 -4.95127 -0.697602 147.292 69.631 38.5535 180 3.05037e-005 178.274 -6.01963 75.7368 6.68283 6.14998e-006 -7.32193e-006 2.11429 -27.3289 71.7355 23.8514 8.1338 25.2359 -3.474 -134.715 69.5123 -41.4034 4.47153e-006 -3.51245e-005 -1.15989 161.132 -73.598 157.229 2.45166e-006 -6.74663e-007 -1.57212 18.262 71.5614 -22.6564 -8.13649 25.2327 3.47885 
50.3319 51.6604 10.6007 -3.01271 -22.6785 -0.733537 0.513662 1.75021 0.0543065 1.03212 7.50478 0.0143415 1.03461 9.14973 -0.00304858 3.94839 38.6064 0.0562012 -7.44643 -21.7618 -0.388552 80.6817 -0.572807 -2.73293 90.9598 29.7109 -4.71752 -1.64162e-007 -1.42725e-006 1.86646e-006 20.7837 41.8448 -8.88862 -2.56029e-007 1.4486e-005 -3.00898 8.02893 -4.95092 0.697384 -67.161 -2.86766 2.53095 -102.434 25.4865 12.2391 8.72567e-007 -1.69209e-006 1.83081e-006 -17.159 45.5859 8.60019 8.36647e-007 -1.05834e-006 3.00568 -8.02885 -4.95127 -0.697602 147.29 69.631 38.555 180 3.05037e-005 178.274 -6.02251 75.7362 6.68561 6.14998e-006 -7.32193e-006 2.11429 -27.3314 71.7359 23.8536 8.1338 25.2359 -3.474 -134.716 69.5127 -41.4026 4.47153e-006 -3.51245e-005 -1.15989 161.131 -73.5989 157.228 2.45166e-006 -6.74663e-007 -1.5721 18.2621 71.5604 -22.6569 -8.13649 25.2327 3.47885 
50.3329 51.6459 10.6144 -3.01267 -22.6789 -0.734676 0.514134 1.75067 0.054288 1.03194 7.50667 0.0143059 1.03442 9.15162 -0.00308093 3.94601 38.604 0.056322 -7.45327 -21.762 -0.391615 80.6813 -0.573661 -2.73321 90.9537 29.7124 -4.716 -1.64162e-007 -1.42725e-006 1.86646e-006 20.7836 41.8487 -8.88932 -2.56029e-007 1.4486e-005 -3.00898 8.02893 -4.95092 0.697384 -67.1701 -2.86662 2.53117 -102.426 25.489 12.2376 8.72567e-007 -1.69209e-006 1.83081e-006 -17.1595 45.5882 8.601 8.36647e-007 -1.05834e-006 3.00568 -8.02885 -4.95127 -0.697602 147.288 69.631 38.5567 180 3.05037e-005 178.274 -6.02542 75.7356 6.68841 6.14998e-006 -7.32193e-006 2.11429 -27.334 71.7362 23.8559 8.1338 25.2359 -3.474 -134.717 69.5131 -41.4018 4.47153e-006 -3.51245e-005 -1.15989 161.13 -73.5999 157.227 2.45166e-006 -6.74663e-007 -1.57208 18.2622 71.5595 -22.6574 -8.13649 25.2327 3.47885 
50.3363 51.6524 10.602 -3.01263 -22.6792 -0.735814 0.514606 1.75113 0.0542694 1.03175 7.50857 0.0142683 1.03423 9.15352 -0.00311508 3.94358 38.6015 0.0564512 -7.46008 -21.7622 -0.394685 80.6808 -0.574512 -2.73348 90.9476 29.7138 -4.71447 -1.64162e-007 -1.42725e-006 1.86646e-006 20.7835 41.8526 -8.89003 -2.56029e-007 1.4486e-005 -3.00898 8.02893 -4.95092 0.697384 -67.1792 -2.86558 2.53138 -102.419 25.4915 12.236 8.72567e-007 -1.69209e-006 1.83081e-006 -17.16 45.5904 8.60181 8.36647e-007 -1.05834e-006 3.00568 -8.02885 -4.95127 -0.697602 147.286 69.6309 38.5584 180 3.05037e-005 178.274 -6.02834 75.735 6.69123 6.14998e-006 -7.32193e-006 2.11429 -27.3366 71.7366 23.8582 8.1338 25.2359 -3.474 -134.718 69.5135 -41.401 4.47153e-006 -3.51245e-005 -1.15989 161.129 -73.6009 157.226 2.45166e-006 -6.74663e-007 -1.57206 18.2624 71.5585 -22.6579 -8.13649 25.2327 3.47885 
50.3353 51.6618 10.5964 -3.0126 -22.6795 -0.736952 0.515077 1.75159 0.0542509 1.03157 7.51046 0.0142346 1.03405 9.15541 -0.00314563 3.94126 38.5991 0.0565636 -7.46694 -21.7624 -0.39774 80.6804 -0.575368 -2.73376 90.9415 29.7153 -4.71294 -1.64162e-007 -1.42725e-006 1.86646e-006 20.7834 41.8565 -8.89074 -2.56029e-007 1.4486e-005 -3.00898 8.02893 -4.95092 0.697384 -67.1882 -2.86454 2.5316 -102.412 25.494 12.2346 8.72567e-007 -1.69209e-006 1.83081e-006 -17.1604 45.5927 8.60261 8.36647e-007 -1.05834e-006 3.00568 -8.02885 -4.95127 -0.697602 147.283 69.6308 38.56 180 3.05037e-005 178.274 -6.03124 75.7343 6.69403 6.14998e-006 -7.32193e-006 2.11429 -27.3391 71.737 23.8604 8.1338 25.2359 -3.474 -134.72 69.5139 -41.4002 4.47153e-006 -3.51245e-005 -1.15989 161.128 -73.6018 157.225 2.45166e-006 -6.74663e-007 -1.57204 18.2625 71.5575 -22.6583 -8.13649 25.2327 3.47885 
50.3372 51.6554 10.6029 -3.01259 -22.6798 -0.738092 0.515543 1.75205 0.0542325 1.03142 7.51233 0.0142102 1.03388 9.15728 -0.00316717 3.93923 38.5967 0.0566343 -7.47397 -21.7627 -0.40076 80.6802 -0.576237 -2.73406 90.9354 29.7169 -4.71135 -1.64162e-007 -1.42725e-006 1.86646e-006 20.7833 41.8603 -8.89143 -2.56029e-007 1.4486e-005 -3.00898 8.02893 -4.95092 0.697384 -67.1969 -2.86353 2.53179 -102.405 25.4964 12.2332 8.72567e-007 -1.69209e-006 1.83081e-006 -17.1609 45.595 8.60341 8.36647e-007 -1.05834e-006 3.00568 -8.02885 -4.95127 -0.697602 147.281 69.6309 38.5615 180 3.05037e-005 178.274 -6.0341 75.7337 6.69678 6.14998e-006 -7.32193e-006 2.11429 -27.3416 71.7373 23.8626 8.1338 25.2359 -3.474 -134.721 69.5143 -41.3995 4.47153e-006 -3.51245e-005 -1.15989 161.127 -73.6027 157.224 2.45166e-006 -6.74663e-007 -1.57203 18.2626 71.5565 -22.6588 -8.13649 25.2327 3.47885 
50.3355 51.66 10.5974 -3.0126 -22.68 -0.739234 0.516002 1.75251 0.0542143 1.03129 7.51416 0.0142009 1.03375 9.15911 -0.0031743 3.93765 38.5942 0.0566384 -7.48125 -21.763 -0.403722 80.6801 -0.577125 -2.73439 90.9295 29.7186 -4.7097 -1.64162e-007 -1.42725e-006 1.86646e-006 20.7831 41.864 -8.89211 -2.56029e-007 1.4486e-005 -3.00898 8.02893 -4.95092 0.697384 -67.2051 -2.86255 2.53196 -102.398 25.4987 12.2319 8.72567e-007 -1.69209e-006 1.83081e-006 -17.1612 45.5973 8.60418 8.36647e-007 -1.05834e-006 3.00568 -8.02885 -4.95127 -0.697602 147.279 69.631 38.5627 180 3.05037e-005 178.274 -6.03689 75.7332 6.69948 6.14998e-006 -7.32193e-006 2.11429 -27.3437 71.7375 23.8646 8.1338 25.2359 -3.474 -134.721 69.5147 -41.3988 4.47153e-006 -3.51245e-005 -1.15989 161.126 -73.6036 157.223 2.45166e-006 -6.74663e-007 -1.57201 18.2626 71.5556 -22.6593 -8.13649 25.2327 3.47885 
50.3346 51.658 10.5953 -3.01265 -22.6801 -0.74038 0.516451 1.75298 0.0541965 1.03122 7.51594 0.0142124 1.03367 9.16089 -0.00316161 3.93669 38.5917 0.0565506 -7.48887 -21.7635 -0.406606 80.6803 -0.57804 -2.73475 90.9235 29.7204 -4.70795 -1.64162e-007 -1.42725e-006 1.86646e-006 20.783 41.8675 -8.89276 -2.56029e-007 1.4486e-005 -3.00898 8.02893 -4.95092 0.697384 -67.2125 -2.86162 2.53211 -102.392 25.501 12.2309 8.72567e-007 -1.69209e-006 1.83081e-006 -17.1616 45.5997 8.60492 8.36647e-007 -1.05834e-006 3.00568 -8.02885 -4.95127 -0.697602 147.278 69.6313 38.5637 180 3.05037e-005 178.274 -6.03958 75.7328 6.70207 6.14998e-006 -7.32193e-006 2.11429 -27.3455 71.7377 23.8663 8.1338 25.2359 -3.474 -134.722 69.5152 -41.3982 4.47153e-006 -3.51245e-005 -1.15989 161.126 -73.6044 157.222 2.45166e-006 -6.74663e-007 -1.57201 18.2625 71.5548 -22.6597 -8.13649 25.2327 3.47885 
50.3366 51.6601 10.5955 -3.01275 -22.6802 -0.74153 0.516888 1.75344 0.0541789 1.0312 7.51765 0.0142502 1.03365 9.1626 -0.0031237 3.93652 38.5892 0.0563461 -7.49692 -21.764 -0.40939 80.6808 -0.578989 -2.73516 90.9177 29.7225 -4.70608 -1.64162e-007 -1.42725e-006 1.86646e-006 20.7828 41.8707 -8.89337 -2.56029e-007 1.4486e-005 -3.00898 8.02893 -4.95092 0.697384 -67.2191 -2.86076 2.53221 -102.387 25.5031 12.2301 8.72567e-007 -1.69209e-006 1.83081e-006 -17.1619 45.602 8.60563 8.36647e-007 -1.05834e-006 3.00568 -8.02885 -4.95127 -0.697602 147.276 69.6319 38.5644 180 3.05037e-005 178.274 -6.04215 75.7324 6.70456 6.14998e-006 -7.32193e-006 2.11429 -27.3469 71.7377 23.8677 8.1338 25.2359 -3.474 -134.722 69.5158 -41.3978 4.47153e-006 -3.51245e-005 -1.15989 161.125 -73.605 157.222 2.45166e-006 -6.74663e-007 -1.572 18.2624 71.554 -22.6602 -8.13649 25.2327 3.47885 
